<?xml version="1.0" encoding="UTF-8" standalone="no"?>
<svg
   xmlns:dc="http://purl.org/dc/elements/1.1/"
   xmlns:cc="http://creativecommons.org/ns#"
   xmlns:rdf="http://www.w3.org/1999/02/22-rdf-syntax-ns#"
   xmlns:svg="http://www.w3.org/2000/svg"
   xmlns="http://www.w3.org/2000/svg"
   viewBox="0 0 472.33334 86.053329"
   height="86.053329"
   width="472.33334"
   xml:space="preserve"
   id="svg2"
   version="1.1"><metadata
     id="metadata8"><rdf:RDF><cc:Work
         rdf:about=""><dc:format>image/svg+xml</dc:format><dc:type
           rdf:resource="http://purl.org/dc/dcmitype/StillImage" /></cc:Work></rdf:RDF></metadata><defs
     id="defs6" /><g
     transform="matrix(1.3333333,0,0,-1.3333333,0,86.053333)"
     id="g10"><g
       transform="scale(0.1)"
       id="g12"><path
         id="path14"
         style="fill:#231f20;fill-opacity:1;fill-rule:nonzero;stroke:none"
         d="M 885.941,250 V 219.414 H 834.262 V 77.2656 H 797.934 V 219.414 H 746.02 V 250 h 139.921 v 0" /><path
         id="path16"
         style="fill:#231f20;fill-opacity:1;fill-rule:nonzero;stroke:none"
         d="m 962.039,207.93 c 0.473,0 1.445,-0.039 2.934,-0.117 v -34.219 c -2.114,0.234 -3.989,0.39 -5.625,0.469 -1.645,0.078 -2.969,0.109 -3.989,0.117 -13.433,0 -22.457,-4.375 -27.07,-13.125 -2.574,-4.922 -3.859,-12.5 -3.859,-22.735 V 77.2656 H 890.789 V 205 h 31.875 v -22.266 c 5.156,8.516 9.652,14.336 13.481,17.461 6.25,5.235 14.375,7.844 24.375,7.852 0.625,0 1.132,-0.039 1.519,-0.117 v 0" /><path
         id="path18"
         style="fill:#231f20;fill-opacity:1;fill-rule:evenodd;stroke:none"
         d="m 1054.97,139.375 c -2.11,-1.328 -4.26,-2.422 -6.44,-3.281 -2.12,-0.789 -5.05,-1.524 -8.8,-2.227 l -7.5,-1.406 c -7.03,-1.25 -12.07,-2.781 -15.11,-4.57 -5.16,-3.047 -7.73,-7.774 -7.73,-14.18 0,-5.703 1.56,-9.844 4.68,-12.422 3.21,-2.4999 7.07,-3.7499 11.61,-3.7499 7.18,0 13.78,2.1093 19.8,6.3279 6.09,4.219 9.25,11.914 9.49,23.086 v 12.422 z m -20.27,15.586 c 6.17,0.781 10.58,1.75 13.24,2.93 4.76,2.031 7.15,5.195 7.15,9.492 0,5.234 -1.84,8.828 -5.51,10.781 -3.6,2.031 -8.9,3.035 -15.94,3.047 -7.89,0 -13.48,-1.953 -16.75,-5.859 -2.35,-2.891 -3.91,-6.797 -4.69,-11.719 h -32.227 c 0.707,11.172 3.828,20.351 9.375,27.539 8.828,11.25 23.982,16.875 45.472,16.875 13.98,0 26.4,-2.774 37.26,-8.32 10.86,-5.547 16.29,-16.016 16.29,-31.407 v -58.593 c 0,-4.063 0.08,-8.985 0.24,-14.7661 0.23,-4.375 0.89,-7.3437 1.99,-8.9062 1.09,-1.5625 2.73,-2.8516 4.92,-3.8672 v -4.9219 h -36.33 c -1.01,2.5782 -1.72,5 -2.11,7.2657 -0.39,2.2656 -0.7,4.8437 -0.94,7.7343 -4.61,-5 -9.92,-9.2578 -15.94,-12.7734 -7.18,-4.1406 -15.31,-6.2109 -24.37,-6.2109 -11.56,0 -21.135,3.2812 -28.713,9.8437 -7.5,6.6406 -11.25,16.0156 -11.25,28.125 0,15.703 6.059,27.07 18.164,34.102 6.649,3.828 16.409,6.55 29.299,8.203 l 11.37,1.406 v 0" /><path
         id="path20"
         style="fill:#231f20;fill-opacity:1;fill-rule:nonzero;stroke:none"
         d="m 1221.14,197.617 c 8.44,-6.875 12.66,-18.32 12.66,-34.336 V 77.2656 h -34.22 v 77.6954 c 0,6.719 -0.9,11.875 -2.69,15.469 -3.28,6.562 -9.53,9.843 -18.75,9.843 -11.33,0 -19.11,-4.804 -23.32,-14.414 -2.19,-5.078 -3.29,-11.562 -3.29,-19.453 V 77.2656 h -33.28 V 204.766 h 32.23 v -18.633 c 4.3,6.562 8.36,11.289 12.18,14.18 6.89,5.156 15.59,7.734 26.14,7.734 13.2,0 23.98,-3.477 32.34,-10.43 v 0" /><path
         id="path22"
         style="fill:#231f20;fill-opacity:1;fill-rule:nonzero;stroke:none"
         d="m 1290.64,118.047 c 0.7,-5.938 2.22,-10.156 4.56,-12.656 4.15,-4.453 11.8,-6.6801 22.98,-6.6801 6.55,0 11.75,0.9688 15.58,2.9301 3.91,1.953 5.86,4.882 5.86,8.789 0,3.75 -1.56,6.601 -4.69,8.554 -3.12,1.954 -14.73,5.313 -34.8,10.079 -14.45,3.593 -24.65,8.078 -30.59,13.476 -5.93,5.313 -8.9,12.969 -8.9,22.969 0,11.797 4.6,21.906 13.82,30.351 9.3,8.516 22.35,12.766 39.15,12.774 15.93,0 28.9,-3.203 38.9,-9.61 10.08,-6.328 15.86,-17.304 17.35,-32.929 h -33.41 c -0.47,4.297 -1.67,7.695 -3.63,10.195 -3.67,4.531 -9.92,6.785 -18.75,6.797 -7.26,0 -12.46,-1.133 -15.59,-3.398 -3.04,-2.266 -4.56,-4.922 -4.56,-7.969 0,-3.828 1.64,-6.602 4.92,-8.321 3.28,-1.796 14.88,-4.882 34.8,-9.257 13.29,-3.125 23.25,-7.852 29.89,-14.18 6.56,-6.406 9.84,-14.414 9.84,-24.023 0,-12.657 -4.73,-23.0083 -14.18,-31.0552 -9.37,-7.9687 -23.91,-11.9531 -43.59,-11.9531 -20.08,0 -34.92,4.2187 -44.53,12.6562 -9.54,8.5157 -14.3,19.3281 -14.3,32.4611 h 33.87 v 0" /><path
         id="path24"
         style="fill:#231f20;fill-opacity:1;fill-rule:evenodd;stroke:none"
         d="m 1479.31,167.266 c -4.45,7.578 -11.72,11.359 -21.8,11.367 -12.11,0 -20.43,-5.742 -24.96,-17.227 -2.35,-6.093 -3.52,-13.828 -3.52,-23.203 0,-14.844 3.95,-25.273 11.84,-31.289 4.69,-3.516 10.24,-5.273 16.64,-5.273 9.3,0 16.37,3.593 21.21,10.781 4.92,7.187 7.39,16.75 7.39,28.711 0,9.844 -2.27,18.547 -6.8,26.133 z m 25.66,24.023 c 10.39,-11.016 15.59,-27.187 15.59,-48.516 0,-22.5 -5.08,-39.648 -15.24,-51.4449 -10.08,-11.7968 -23.09,-17.6953 -39.02,-17.6953 -10.16,0 -18.6,2.5391 -25.32,7.6172 -3.66,2.8125 -7.26,6.9141 -10.78,12.3047 V 26.9922 h -33.04 V 205 h 31.99 v -18.867 c 3.59,5.547 7.42,9.922 11.49,13.125 7.42,5.703 16.25,8.547 26.48,8.555 14.92,0 27.54,-5.508 37.85,-16.524 v 0" /><path
         id="path26"
         style="fill:#231f20;fill-opacity:1;fill-rule:evenodd;stroke:none"
         d="m 1624.5,111.25 c 5.23,6.953 7.86,16.836 7.86,29.648 0,12.813 -2.63,22.657 -7.86,29.532 -5.23,6.953 -12.73,10.422 -22.5,10.429 -9.77,0 -17.3,-3.476 -22.61,-10.429 -5.24,-6.875 -7.86,-16.719 -7.86,-29.532 0,-12.812 2.62,-22.695 7.86,-29.648 5.31,-6.953 12.84,-10.43 22.61,-10.43 9.77,0 17.27,3.477 22.5,10.43 z m 26.72,-18.5156 c -10.78,-13.2813 -27.15,-19.9219 -49.1,-19.9219 -21.95,0 -38.32,6.6406 -49.1,19.9219 -10.79,13.3596 -16.17,29.4136 -16.17,48.1636 0,18.438 5.38,34.415 16.17,47.93 10.78,13.516 27.15,20.266 49.1,20.274 21.95,0 38.32,-6.758 49.1,-20.274 10.78,-13.515 16.17,-29.492 16.17,-47.93 0,-18.75 -5.39,-34.804 -16.17,-48.1636 v 0" /><path
         id="path28"
         style="fill:#231f20;fill-opacity:1;fill-rule:nonzero;stroke:none"
         d="m 1762.2,207.93 c 0.47,0 1.44,-0.039 2.93,-0.117 v -34.219 c -2.11,0.234 -3.99,0.39 -5.63,0.469 -1.64,0.078 -2.97,0.109 -3.98,0.117 -13.44,0 -22.46,-4.375 -27.07,-13.125 -2.58,-4.922 -3.87,-12.5 -3.87,-22.735 V 77.2656 h -33.63 V 205 h 31.87 v -22.266 c 5.16,8.516 9.65,14.336 13.48,17.461 6.25,5.235 14.38,7.844 24.38,7.852 0.62,0 1.13,-0.039 1.52,-0.117 v 0" /><path
         id="path30"
         style="fill:#231f20;fill-opacity:1;fill-rule:nonzero;stroke:none"
         d="m 1771.57,180.039 v 23.789 h 17.82 v 35.625 h 33.05 v -35.625 h 20.74 v -23.789 h -20.74 v -67.5 c 0,-5.234 0.66,-8.516 1.99,-9.844 1.32,-1.25 5.38,-1.875 12.19,-1.875 1.01,0 2.07,0 3.16,0 1.17,0.078 2.31,0.157 3.4,0.235 V 76.0938 l -15.82,-0.586 c -15.78,-0.5469 -26.57,2.1875 -32.34,8.2031 -3.75,3.8282 -5.63,9.7188 -5.63,17.6951 v 78.633 h -17.82 v 0" /><path
         id="path32"
         style="fill:#231f20;fill-opacity:1;fill-rule:evenodd;stroke:none"
         d="m 1935.05,139.375 c -2.1,-1.328 -4.25,-2.422 -6.44,-3.281 -2.11,-0.789 -5.04,-1.524 -8.79,-2.227 l -7.5,-1.406 c -7.03,-1.25 -12.07,-2.781 -15.12,-4.57 -5.15,-3.047 -7.73,-7.774 -7.73,-14.18 0,-5.703 1.55,-9.844 4.69,-12.422 3.19,-2.4999 7.05,-3.7499 11.6,-3.7499 7.17,0 13.79,2.1093 19.8,6.3279 6.1,4.219 9.26,11.914 9.49,23.086 v 12.422 z m -20.27,15.586 c 6.17,0.781 10.58,1.75 13.24,2.93 4.77,2.031 7.14,5.195 7.15,9.492 0,5.234 -1.85,8.828 -5.51,10.781 -3.6,2.031 -8.9,3.035 -15.93,3.047 -7.89,0 -13.48,-1.953 -16.76,-5.859 -2.34,-2.891 -3.91,-6.797 -4.69,-11.719 h -32.23 c 0.71,11.172 3.83,20.351 9.38,27.539 8.82,11.25 23.98,16.875 45.47,16.875 13.97,0 26.39,-2.774 37.26,-8.32 10.86,-5.547 16.28,-16.016 16.29,-31.407 v -58.593 c 0,-4.063 0.08,-8.985 0.24,-14.7661 0.23,-4.375 0.9,-7.3437 1.99,-8.9062 1.08,-1.5625 2.72,-2.8516 4.92,-3.8672 v -4.9219 h -36.33 c -1.02,2.5782 -1.73,5 -2.11,7.2657 -0.39,2.2656 -0.7,4.8437 -0.93,7.7343 -4.61,-5 -9.94,-9.2578 -15.94,-12.7734 -7.19,-4.1406 -15.33,-6.2109 -24.38,-6.2109 -11.57,0 -21.13,3.2812 -28.71,9.8437 -7.5,6.6406 -11.25,16.0156 -11.25,28.125 0,15.703 6.06,27.07 18.17,34.102 6.64,3.828 16.39,6.55 29.29,8.203 l 11.37,1.406 v 0" /><path
         id="path34"
         style="fill:#231f20;fill-opacity:1;fill-rule:nonzero;stroke:none"
         d="m 1984.98,180.039 v 23.789 h 17.81 v 35.625 h 33.05 v -35.625 h 20.74 v -23.789 h -20.74 v -67.5 c 0,-5.234 0.66,-8.516 1.99,-9.844 1.31,-1.25 5.38,-1.875 12.19,-1.875 1.01,0 2.07,0 3.16,0 1.17,0.078 2.3,0.157 3.4,0.235 V 76.0938 l -15.82,-0.586 c -15.8,-0.5469 -26.58,2.1875 -32.35,8.2031 -3.75,3.8282 -5.62,9.7188 -5.62,17.6951 v 78.633 h -17.81 v 0" /><path
         id="path36"
         style="fill:#231f20;fill-opacity:1;fill-rule:evenodd;stroke:none"
         d="m 2112.36,220.234 h -33.87 v 30.821 h 33.87 V 220.234 Z M 2078.49,205 h 33.87 V 77.2656 h -33.87 V 205 v 0" /><path
         id="path38"
         style="fill:#231f20;fill-opacity:1;fill-rule:evenodd;stroke:none"
         d="m 2224.51,111.25 c 5.23,6.953 7.84,16.836 7.85,29.648 0,12.813 -2.62,22.657 -7.85,29.532 -5.25,6.953 -12.75,10.422 -22.5,10.429 -9.77,0 -17.31,-3.476 -22.62,-10.429 -5.25,-6.875 -7.85,-16.719 -7.85,-29.532 0,-12.812 2.6,-22.695 7.85,-29.648 5.31,-6.953 12.85,-10.43 22.62,-10.43 9.75,0 17.25,3.477 22.5,10.43 z m 26.72,-18.5156 c -10.78,-13.2813 -27.15,-19.9219 -49.1,-19.9219 -21.96,0 -38.33,6.6406 -49.11,19.9219 -10.78,13.3596 -16.17,29.4136 -16.17,48.1636 0,18.438 5.39,34.415 16.17,47.93 10.78,13.516 27.15,20.266 49.11,20.274 21.95,0 38.3,-6.758 49.1,-20.274 10.78,-13.515 16.17,-29.492 16.17,-47.93 0,-18.75 -5.39,-34.804 -16.17,-48.1636 v 0" /><path
         id="path40"
         style="fill:#231f20;fill-opacity:1;fill-rule:nonzero;stroke:none"
         d="m 2394.43,197.617 c 8.44,-6.875 12.66,-18.32 12.66,-34.336 V 77.2656 h -34.22 v 77.6954 c 0,6.719 -0.91,11.875 -2.7,15.469 -3.28,6.562 -9.54,9.843 -18.75,9.843 -11.34,0 -19.1,-4.804 -23.32,-14.414 -2.2,-5.078 -3.28,-11.562 -3.28,-19.453 V 77.2656 h -33.28 V 204.766 h 32.23 v -18.633 c 4.28,6.562 8.34,11.289 12.18,14.18 6.87,5.156 15.58,7.734 26.14,7.734 13.19,0 23.97,-3.477 32.34,-10.43 v 0" /><path
         id="path42"
         style="fill:#231f20;fill-opacity:1;fill-rule:evenodd;stroke:none"
         d="m 2545.59,142.539 h 43.83 l -21.56,67.969 -22.27,-67.969 z M 2547.82,250 h 40.78 l 61.17,-172.7344 h -39.14 l -11.13,35.5074 h -63.64 l -11.95,-35.5074 h -37.73 L 2547.82,250 v 0" /><path
         id="path44"
         style="fill:#231f20;fill-opacity:1;fill-rule:nonzero;stroke:none"
         d="m 2702.27,205 v -76.992 c 0,-7.266 0.85,-12.735 2.58,-16.406 3.04,-6.485 9.02,-9.727 17.93,-9.727 11.4,0 19.21,4.609 23.43,13.828 2.19,5 3.28,11.594 3.29,19.805 V 205 h 33.86 V 77.2656 h -32.46 v 18.0469 c -0.32,-0.3906 -1.09,-1.5625 -2.34,-3.5156 -1.26,-1.9531 -2.74,-3.6719 -4.45,-5.1563 -5.25,-4.6875 -10.32,-7.8906 -15.24,-9.6093 -4.84,-1.7188 -10.55,-2.5782 -17.11,-2.5782 -18.9,0 -31.64,6.7969 -38.2,20.3907 -3.67,7.5002 -5.51,18.5542 -5.51,33.1642 V 205 h 34.22 v 0" /><path
         id="path46"
         style="fill:#231f20;fill-opacity:1;fill-rule:nonzero;stroke:none"
         d="m 2802.46,180.039 v 23.789 h 17.82 v 35.625 h 33.04 v -35.625 h 20.75 v -23.789 h -20.75 v -67.5 c 0,-5.234 0.67,-8.516 2,-9.844 1.32,-1.25 5.38,-1.875 12.18,-1.875 1.02,0 2.07,0 3.17,0 1.17,0.078 2.3,0.157 3.4,0.235 V 76.0938 l -15.82,-0.586 c -15.79,-0.5469 -26.57,2.1875 -32.35,8.2031 -3.75,3.8282 -5.62,9.7188 -5.62,17.6951 v 78.633 h -17.82 v 0" /><path
         id="path48"
         style="fill:#231f20;fill-opacity:1;fill-rule:nonzero;stroke:none"
         d="m 2987.39,204.18 c 6.47,-2.735 11.79,-6.914 15.93,-12.539 3.52,-4.766 5.66,-9.688 6.45,-14.766 0.78,-5 1.16,-13.203 1.17,-24.609 V 77.2656 h -34.1 v 77.6954 c 0,6.875 -1.17,12.414 -3.52,16.641 -3.04,5.937 -8.82,8.898 -17.34,8.906 -8.83,0 -15.55,-2.969 -20.16,-8.906 -4.53,-5.86 -6.79,-14.258 -6.79,-25.196 V 77.2656 h -33.28 V 249.414 h 33.28 v -61.055 c 4.83,7.422 10.42,12.571 16.76,15.469 6.4,2.969 13.11,4.445 20.15,4.453 7.88,0 15.03,-1.367 21.45,-4.101 v 0" /><path
         id="path50"
         style="fill:#231f20;fill-opacity:1;fill-rule:evenodd;stroke:none"
         d="m 3121.92,111.25 c 5.23,6.953 7.84,16.836 7.85,29.648 0,12.813 -2.62,22.657 -7.85,29.532 -5.24,6.953 -12.74,10.422 -22.5,10.429 -9.77,0 -17.31,-3.476 -22.62,-10.429 -5.24,-6.875 -7.85,-16.719 -7.85,-29.532 0,-12.812 2.61,-22.695 7.85,-29.648 5.31,-6.953 12.85,-10.43 22.62,-10.43 9.76,0 17.26,3.477 22.5,10.43 z m 26.71,-18.5156 c -10.77,-13.2813 -27.15,-19.9219 -49.09,-19.9219 -21.96,0 -38.33,6.6406 -49.11,19.9219 -10.78,13.3596 -16.17,29.4136 -16.17,48.1636 0,18.438 5.39,34.415 16.17,47.93 10.78,13.516 27.15,20.266 49.11,20.274 21.94,0 38.31,-6.758 49.09,-20.274 10.79,-13.515 16.17,-29.492 16.17,-47.93 0,-18.75 -5.38,-34.804 -16.17,-48.1636 v 0" /><path
         id="path52"
         style="fill:#231f20;fill-opacity:1;fill-rule:nonzero;stroke:none"
         d="m 3259.61,207.93 c 0.47,0 1.44,-0.039 2.93,-0.117 v -34.219 c -2.11,0.234 -3.99,0.39 -5.62,0.469 -1.64,0.078 -2.97,0.109 -3.99,0.117 -13.44,0 -22.47,-4.375 -27.07,-13.125 -2.57,-4.922 -3.86,-12.5 -3.86,-22.735 V 77.2656 h -33.64 V 205 h 31.88 v -22.266 c 5.15,8.516 9.64,14.336 13.47,17.461 6.25,5.235 14.38,7.844 24.37,7.852 0.63,0 1.14,-0.039 1.53,-0.117 v 0" /><path
         id="path54"
         style="fill:#231f20;fill-opacity:1;fill-rule:evenodd;stroke:none"
         d="m 3316.45,220.234 h -33.87 v 30.821 h 33.87 V 220.234 Z M 3282.58,205 h 33.87 V 77.2656 h -33.87 V 205 v 0" /><path
         id="path56"
         style="fill:#231f20;fill-opacity:1;fill-rule:nonzero;stroke:none"
         d="m 3335.67,180.039 v 23.789 h 17.81 v 35.625 h 33.05 v -35.625 h 20.74 v -23.789 h -20.74 v -67.5 c 0,-5.234 0.66,-8.516 1.99,-9.844 1.32,-1.25 5.38,-1.875 12.19,-1.875 1.01,0 2.07,0 3.16,0 1.17,0.078 2.31,0.157 3.4,0.235 V 76.0938 l -15.82,-0.586 c -15.79,-0.5469 -26.57,2.1875 -32.34,8.2031 -3.75,3.8282 -5.63,9.7188 -5.63,17.6951 v 78.633 h -17.81 v 0" /><path
         id="path58"
         style="fill:#231f20;fill-opacity:1;fill-rule:nonzero;stroke:none"
         d="m 3433.87,52.7734 4.21,-0.2343 c 3.29,-0.1563 6.42,-0.0391 9.38,0.3515 2.97,0.3907 5.47,1.2891 7.5,2.6953 1.96,1.3282 3.75,4.1016 5.4,8.3204 1.71,4.2187 2.42,6.7968 2.1,7.7343 L 3415.58,205 h 37.16 L 3480.62,110.781 3507,205 h 35.5 L 3498.67,79.375 c -8.43,-24.2187 -15.12,-39.2187 -20.04,-45 -4.92,-5.8594 -14.76,-8.7891 -29.52,-8.7891 -2.97,0 -5.36,0.0391 -7.15,0.1172 -1.8,0 -4.5,0.1172 -8.09,0.3516 v 26.7187 0" /><path
         id="path60"
         style="fill:#231f20;fill-opacity:1;fill-rule:nonzero;stroke:none"
         d="m 874.926,538 h 51.922 V 365.266 h -33.641 v 116.836 c 0,3.351 0.039,8.039 0.117,14.062 0.078,6.094 0.117,10.777 0.117,14.063 L 860.746,365.266 h -35.039 l -32.461,144.961 c 0,-3.286 0.039,-7.969 0.117,-14.063 0.078,-6.023 0.117,-10.711 0.117,-14.062 V 365.266 H 759.848 V 538 h 52.5 L 843.754,402.18 874.926,538 v 0" /><path
         id="path62"
         style="fill:#231f20;fill-opacity:1;fill-rule:evenodd;stroke:none"
         d="m 1028.1,427.375 c -2.12,-1.336 -4.27,-2.43 -6.46,-3.281 -2.1,-0.789 -5.03,-1.528 -8.78,-2.231 l -7.5,-1.402 c -7.036,-1.258 -12.075,-2.781 -15.122,-4.57 -5.156,-3.047 -7.734,-7.782 -7.734,-14.18 0,-5.711 1.562,-9.848 4.687,-12.422 3.204,-2.508 7.071,-3.75 11.602,-3.75 7.187,0 13.787,2.109 19.807,6.324 6.09,4.223 9.26,11.91 9.5,23.086 v 12.426 z m -20.28,15.586 c 6.17,0.773 10.58,1.75 13.24,2.93 4.76,2.023 7.15,5.187 7.15,9.492 0,5.226 -1.84,8.82 -5.51,10.781 -3.59,2.024 -8.91,3.039 -15.94,3.047 -7.889,0 -13.475,-1.961 -16.756,-5.859 -2.344,-2.899 -3.906,-6.797 -4.688,-11.719 h -32.218 c 0.695,11.164 3.82,20.344 9.375,27.539 8.82,11.25 23.976,16.875 45.457,16.875 13.99,0 26.41,-2.781 37.27,-8.32 10.86,-5.555 16.29,-16.024 16.29,-31.411 v -58.589 c 0,-4.071 0.08,-8.993 0.23,-14.766 0.24,-4.383 0.9,-7.352 2,-8.906 1.09,-1.571 2.73,-2.86 4.92,-3.867 v -4.922 h -36.33 c -1.02,2.578 -1.72,4.992 -2.11,7.261 -0.39,2.262 -0.7,4.84 -0.94,7.739 -4.61,-5.008 -9.92,-9.258 -15.94,-12.778 -7.18,-4.136 -15.308,-6.203 -24.371,-6.211 -11.562,0 -21.133,3.286 -28.711,9.848 -7.5,6.633 -11.25,16.008 -11.25,28.125 0,15.699 6.055,27.066 18.164,34.102 6.641,3.82 16.407,6.554 29.297,8.203 l 11.371,1.406 v 0" /><path
         id="path64"
         style="fill:#231f20;fill-opacity:1;fill-rule:nonzero;stroke:none"
         d="m 1117.15,406.047 c 0.71,-5.945 2.23,-10.164 4.57,-12.656 4.14,-4.453 11.8,-6.68 22.97,-6.68 6.56,0 11.76,0.969 15.59,2.93 3.9,1.945 5.86,4.875 5.86,8.789 0,3.75 -1.57,6.593 -4.69,8.55 -3.13,1.95 -14.73,5.309 -34.81,10.083 -14.45,3.585 -24.64,8.078 -30.58,13.476 -5.94,5.305 -8.91,12.961 -8.91,22.969 0,11.789 4.61,21.906 13.83,30.347 9.3,8.512 22.34,12.77 39.14,12.778 15.94,0 28.91,-3.211 38.91,-9.61 10.08,-6.332 15.86,-17.312 17.34,-32.929 h -33.4 c -0.47,4.289 -1.68,7.687 -3.62,10.195 -3.68,4.524 -9.93,6.789 -18.75,6.797 -7.28,0 -12.47,-1.141 -15.6,-3.398 -3.04,-2.274 -4.57,-4.922 -4.57,-7.969 0,-3.836 1.64,-6.61 4.93,-8.321 3.28,-1.804 14.88,-4.89 34.8,-9.257 13.28,-3.133 23.24,-7.852 29.88,-14.18 6.57,-6.414 9.85,-14.414 9.85,-24.023 0,-12.661 -4.73,-23.016 -14.18,-31.055 -9.38,-7.969 -23.91,-11.953 -43.6,-11.953 -20.07,0 -34.92,4.218 -44.53,12.656 -9.53,8.508 -14.29,19.328 -14.29,32.461 h 33.86 v 0" /><path
         id="path66"
         style="fill:#231f20;fill-opacity:1;fill-rule:nonzero;stroke:none"
         d="m 1250.63,406.047 c 0.7,-5.945 2.23,-10.164 4.57,-12.656 4.14,-4.453 11.8,-6.68 22.97,-6.68 6.56,0 11.76,0.969 15.58,2.93 3.91,1.945 5.86,4.875 5.86,8.789 0,3.75 -1.56,6.593 -4.68,8.55 -3.13,1.95 -14.73,5.309 -34.81,10.083 -14.45,3.585 -24.65,8.078 -30.58,13.476 -5.94,5.305 -8.91,12.961 -8.91,22.969 0,11.789 4.61,21.906 13.83,30.347 9.29,8.512 22.34,12.77 39.14,12.778 15.94,0 28.9,-3.211 38.9,-9.61 10.08,-6.332 15.86,-17.312 17.35,-32.929 h -33.4 c -0.47,4.289 -1.68,7.687 -3.63,10.195 -3.68,4.524 -9.93,6.789 -18.75,6.797 -7.27,0 -12.46,-1.141 -15.59,-3.398 -3.05,-2.274 -4.57,-4.922 -4.57,-7.969 0,-3.836 1.64,-6.61 4.92,-8.321 3.28,-1.804 14.89,-4.89 34.81,-9.257 13.28,-3.133 23.24,-7.852 29.88,-14.18 6.56,-6.414 9.84,-14.414 9.84,-24.023 0,-12.661 -4.72,-23.016 -14.18,-31.055 -9.37,-7.969 -23.9,-11.953 -43.58,-11.953 -20.09,0 -34.93,4.218 -44.54,12.656 -9.53,8.508 -14.3,19.328 -14.3,32.461 h 33.87 v 0" /><path
         id="path68"
         style="fill:#231f20;fill-opacity:1;fill-rule:evenodd;stroke:none"
         d="m 1428.52,427.375 c -2.11,-1.336 -4.26,-2.43 -6.45,-3.281 -2.1,-0.789 -5.03,-1.528 -8.78,-2.231 l -7.5,-1.402 c -7.04,-1.258 -12.07,-2.781 -15.12,-4.57 -5.16,-3.047 -7.74,-7.782 -7.74,-14.18 0,-5.711 1.57,-9.848 4.69,-12.422 3.2,-2.508 7.07,-3.75 11.6,-3.75 7.19,0 13.79,2.109 19.81,6.324 6.09,4.223 9.26,11.91 9.49,23.086 v 12.426 z m -20.27,15.586 c 6.17,0.773 10.58,1.75 13.24,2.93 4.76,2.023 7.15,5.187 7.15,9.492 0,5.226 -1.84,8.82 -5.51,10.781 -3.59,2.024 -8.91,3.039 -15.94,3.047 -7.89,0 -13.47,-1.961 -16.76,-5.859 -2.33,-2.899 -3.9,-6.797 -4.68,-11.719 h -32.23 c 0.7,11.164 3.83,20.344 9.37,27.539 8.83,11.25 23.99,16.875 45.47,16.875 13.99,0 26.41,-2.781 37.27,-8.32 10.86,-5.555 16.29,-16.024 16.29,-31.411 v -58.589 c 0,-4.071 0.08,-8.993 0.23,-14.766 0.24,-4.383 0.9,-7.352 1.99,-8.906 1.1,-1.571 2.74,-2.86 4.93,-3.867 v -4.922 h -36.33 c -1.02,2.578 -1.72,4.992 -2.11,7.261 -0.39,2.262 -0.7,4.84 -0.94,7.739 -4.61,-5.008 -9.92,-9.258 -15.94,-12.778 -7.18,-4.136 -15.31,-6.203 -24.37,-6.211 -11.56,0 -21.13,3.286 -28.71,9.848 -7.5,6.633 -11.25,16.008 -11.25,28.125 0,15.699 6.05,27.066 18.16,34.102 6.64,3.82 16.41,6.554 29.3,8.203 l 11.37,1.406 v 0" /><path
         id="path70"
         style="fill:#231f20;fill-opacity:1;fill-rule:nonzero;stroke:none"
         d="m 1567.86,447.18 c -0.63,4.758 -2.23,9.054 -4.81,12.886 -3.75,5.161 -9.57,7.739 -17.45,7.739 -11.25,0 -18.96,-5.594 -23.1,-16.758 -2.18,-5.945 -3.28,-13.828 -3.28,-23.672 0,-9.375 1.1,-16.922 3.28,-22.617 3.99,-10.633 11.49,-15.942 22.5,-15.942 7.82,0 13.36,2.114 16.64,6.332 3.29,4.215 5.28,9.68 5.98,16.407 h 34.1 c -0.78,-10.164 -4.45,-19.774 -11.01,-28.828 -10.47,-14.618 -25.98,-21.911 -46.53,-21.914 -20.54,0 -35.66,6.089 -45.35,18.281 -9.69,12.183 -14.53,28.008 -14.53,47.461 0,21.945 5.35,39.015 16.06,51.211 10.7,12.183 25.46,18.281 44.29,18.281 16.02,0 29.1,-3.602 39.26,-10.781 10.23,-7.196 16.29,-19.891 18.16,-38.086 h -34.21 v 0" /><path
         id="path72"
         style="fill:#231f20;fill-opacity:1;fill-rule:nonzero;stroke:none"
         d="m 1716.92,492.18 c 6.48,-2.742 11.79,-6.914 15.94,-12.539 3.51,-4.774 5.66,-9.696 6.44,-14.766 0.78,-5.008 1.17,-13.211 1.17,-24.609 v -75 h -34.1 v 77.695 c 0,6.867 -1.17,12.414 -3.51,16.641 -3.05,5.929 -8.83,8.898 -17.35,8.906 -8.83,0 -15.55,-2.977 -20.15,-8.906 -4.54,-5.864 -6.8,-14.266 -6.8,-25.2 v -69.136 h -33.28 v 172.148 h 33.28 v -61.059 c 4.84,7.418 10.43,12.575 16.76,15.469 6.4,2.965 13.12,4.449 20.15,4.453 7.89,0 15.04,-1.371 21.45,-4.097 v 0" /><path
         id="path74"
         style="fill:#231f20;fill-opacity:1;fill-rule:nonzero;stroke:none"
         d="m 1804.93,493 v -76.992 c 0,-7.27 0.86,-12.742 2.57,-16.406 3.05,-6.493 9.03,-9.727 17.93,-9.727 11.41,0 19.22,4.602 23.44,13.824 2.19,4.996 3.28,11.598 3.28,19.809 V 493 h 33.87 V 365.266 h -32.46 v 18.047 c -0.31,-0.399 -1.1,-1.571 -2.35,-3.516 -1.25,-1.961 -2.73,-3.68 -4.45,-5.156 -5.23,-4.692 -10.31,-7.899 -15.23,-9.614 -4.85,-1.714 -10.55,-2.578 -17.11,-2.578 -18.91,0 -31.64,6.801 -38.2,20.395 -3.68,7.5 -5.51,18.547 -5.51,33.164 V 493 h 34.22 v 0" /><path
         id="path76"
         style="fill:#231f20;fill-opacity:1;fill-rule:nonzero;stroke:none"
         d="m 1944.26,406.047 c 0.7,-5.945 2.23,-10.164 4.57,-12.656 4.14,-4.453 11.8,-6.68 22.97,-6.68 6.56,0 11.76,0.969 15.59,2.93 3.9,1.945 5.86,4.875 5.86,8.789 0,3.75 -1.57,6.593 -4.69,8.55 -3.13,1.95 -14.73,5.309 -34.81,10.083 -14.45,3.585 -24.64,8.078 -30.58,13.476 -5.94,5.305 -8.91,12.961 -8.91,22.969 0,11.789 4.61,21.906 13.83,30.347 9.3,8.512 22.34,12.77 39.14,12.778 15.94,0 28.91,-3.211 38.91,-9.61 10.07,-6.332 15.86,-17.312 17.34,-32.929 h -33.4 c -0.47,4.289 -1.68,7.687 -3.63,10.195 -3.67,4.524 -9.92,6.789 -18.75,6.797 -7.27,0 -12.46,-1.141 -15.59,-3.398 -3.04,-2.274 -4.57,-4.922 -4.57,-7.969 0,-3.836 1.64,-6.61 4.92,-8.321 3.29,-1.804 14.89,-4.89 34.81,-9.257 13.28,-3.133 23.24,-7.852 29.88,-14.18 6.56,-6.414 9.85,-14.414 9.85,-24.023 0,-12.661 -4.73,-23.016 -14.18,-31.055 -9.38,-7.969 -23.91,-11.953 -43.6,-11.953 -20.08,0 -34.92,4.218 -44.53,12.656 -9.53,8.508 -14.3,19.328 -14.3,32.461 h 33.87 v 0" /><path
         id="path78"
         style="fill:#231f20;fill-opacity:1;fill-rule:evenodd;stroke:none"
         d="m 2084.07,461.594 c -4.22,-4.852 -6.88,-11.414 -7.97,-19.692 h 51.91 c -0.55,8.825 -3.24,15.504 -8.08,20.039 -4.77,4.606 -10.71,6.911 -17.82,6.914 -7.73,0 -13.75,-2.425 -18.04,-7.261 z m 46.75,28.828 c 8.52,-3.984 15.55,-10.281 21.1,-18.867 5,-7.586 8.24,-16.375 9.72,-26.367 0.86,-5.864 1.22,-14.297 1.06,-25.313 h -87.42 c 0.47,-12.82 4.49,-21.801 12.07,-26.953 4.61,-3.211 10.15,-4.809 16.64,-4.809 6.87,0 12.46,1.95 16.76,5.864 2.34,2.109 4.41,5.039 6.21,8.789 h 34.1 c -0.86,-7.586 -4.81,-15.282 -11.84,-23.086 -10.93,-12.422 -26.25,-18.633 -45.93,-18.633 -16.25,0 -30.59,5.226 -43.01,15.703 -12.42,10.461 -18.64,27.492 -18.64,51.094 0,22.101 5.59,39.054 16.76,50.855 11.25,11.793 25.82,17.692 43.71,17.699 10.63,0 20.2,-1.996 28.71,-5.976 v 0" /><path
         id="path80"
         style="fill:#231f20;fill-opacity:1;fill-rule:nonzero;stroke:none"
         d="m 2172.07,468.039 v 23.785 h 17.82 v 35.625 h 33.04 v -35.625 h 20.75 v -23.785 h -20.75 v -67.5 c 0,-5.242 0.67,-8.523 2,-9.848 1.32,-1.253 5.39,-1.875 12.18,-1.875 1.02,0 2.07,0 3.17,0 1.17,0.075 2.3,0.153 3.4,0.239 v -24.961 l -15.82,-0.586 c -15.79,-0.547 -26.57,2.18 -32.35,8.203 -3.75,3.82 -5.62,9.719 -5.62,17.691 v 78.637 h -17.82 v 0" /><path
         id="path82"
         style="fill:#231f20;fill-opacity:1;fill-rule:nonzero;stroke:none"
         d="m 2252,468.039 v 23.785 h 17.81 v 35.625 h 33.05 v -35.625 h 20.74 v -23.785 h -20.74 v -67.5 c 0,-5.242 0.66,-8.523 1.99,-9.848 1.33,-1.253 5.39,-1.875 12.19,-1.875 1.01,0 2.07,0 3.16,0 1.17,0.075 2.3,0.153 3.4,0.239 v -24.961 l -15.82,-0.586 c -15.78,-0.547 -26.57,2.18 -32.35,8.203 -3.75,3.82 -5.62,9.719 -5.62,17.691 v 78.637 H 2252 v 0" /><path
         id="path84"
         style="fill:#231f20;fill-opacity:1;fill-rule:nonzero;stroke:none"
         d="m 2371.06,406.047 c 0.7,-5.945 2.23,-10.164 4.57,-12.656 4.14,-4.453 11.8,-6.68 22.97,-6.68 6.56,0 11.76,0.969 15.58,2.93 3.91,1.945 5.86,4.875 5.86,8.789 0,3.75 -1.56,6.593 -4.68,8.55 -3.13,1.95 -14.73,5.309 -34.81,10.083 -14.45,3.585 -24.65,8.078 -30.59,13.476 -5.93,5.305 -8.9,12.961 -8.9,22.969 0,11.789 4.61,21.906 13.83,30.347 9.29,8.512 22.34,12.77 39.14,12.778 15.93,0 28.9,-3.211 38.9,-9.61 10.08,-6.332 15.86,-17.312 17.35,-32.929 h -33.4 c -0.47,4.289 -1.68,7.687 -3.63,10.195 -3.68,4.524 -9.93,6.789 -18.75,6.797 -7.27,0 -12.46,-1.141 -15.59,-3.398 -3.05,-2.274 -4.57,-4.922 -4.57,-7.969 0,-3.836 1.64,-6.61 4.92,-8.321 3.28,-1.804 14.88,-4.89 34.81,-9.257 13.28,-3.133 23.24,-7.852 29.88,-14.18 6.56,-6.414 9.84,-14.414 9.84,-24.023 0,-12.661 -4.72,-23.016 -14.18,-31.055 -9.37,-7.969 -23.9,-11.953 -43.59,-11.953 -20.08,0 -34.92,4.218 -44.53,12.656 -9.53,8.508 -14.3,19.328 -14.3,32.461 h 33.87 v 0" /><path
         id="path86"
         style="fill:#231f20;fill-opacity:1;fill-rule:evenodd;stroke:none"
         d="m 2582.89,508 v -38.086 h 42.43 c 7.57,0 13.71,1.402 18.39,4.219 4.77,2.883 7.15,7.961 7.15,15.23 0,8.043 -3.12,13.356 -9.37,15.942 -5.39,1.789 -12.27,2.687 -20.63,2.695 h -37.97 z m 0,-66.684 v -46.05 h 42.43 c 7.57,0 13.47,1.007 17.69,3.047 7.66,3.75 11.49,10.929 11.49,21.562 0,8.977 -3.71,15.148 -11.14,18.516 -4.14,1.875 -9.96,2.843 -17.46,2.925 h -43.01 z m 94.46,78.286 c 5.31,-7.352 7.97,-16.141 7.97,-26.372 0,-10.542 -2.66,-19.027 -7.97,-25.425 -2.97,-3.602 -7.35,-6.883 -13.13,-9.844 8.83,-3.211 15.47,-8.289 19.92,-15.234 4.54,-6.961 6.8,-15.399 6.8,-25.313 0,-10.242 -2.58,-19.422 -7.73,-27.539 -3.28,-5.395 -7.39,-9.93 -12.31,-13.598 -5.54,-4.214 -12.11,-7.113 -19.69,-8.672 -7.5,-1.566 -15.66,-2.339 -24.49,-2.339 h -78.28 V 538 h 83.91 c 21.17,-0.32 36.17,-6.445 45,-18.398 v 0" /><path
         id="path88"
         style="fill:#231f20;fill-opacity:1;fill-rule:evenodd;stroke:none"
         d="m 2788.91,427.375 c -2.11,-1.336 -4.26,-2.43 -6.45,-3.281 -2.1,-0.789 -5.03,-1.528 -8.78,-2.231 l -7.5,-1.402 c -7.04,-1.258 -12.07,-2.781 -15.12,-4.57 -5.16,-3.047 -7.74,-7.782 -7.74,-14.18 0,-5.711 1.57,-9.848 4.69,-12.422 3.2,-2.508 7.07,-3.75 11.6,-3.75 7.19,0 13.79,2.109 19.81,6.324 6.09,4.223 9.26,11.91 9.49,23.086 v 12.426 z m -20.27,15.586 c 6.17,0.773 10.58,1.75 13.24,2.93 4.76,2.023 7.15,5.187 7.15,9.492 0,5.226 -1.84,8.82 -5.51,10.781 -3.59,2.024 -8.91,3.039 -15.94,3.047 -7.89,0 -13.47,-1.961 -16.76,-5.859 -2.34,-2.899 -3.9,-6.797 -4.68,-11.719 h -32.23 c 0.7,11.164 3.83,20.344 9.38,27.539 8.82,11.25 23.98,16.875 45.46,16.875 13.99,0 26.41,-2.781 37.27,-8.32 10.86,-5.555 16.29,-16.024 16.29,-31.411 v -58.589 c 0,-4.071 0.08,-8.993 0.23,-14.766 0.24,-4.383 0.9,-7.352 2,-8.906 1.09,-1.571 2.73,-2.86 4.92,-3.867 v -4.922 h -36.33 c -1.02,2.578 -1.72,4.992 -2.11,7.261 -0.39,2.262 -0.7,4.84 -0.94,7.739 -4.61,-5.008 -9.92,-9.258 -15.94,-12.778 -7.18,-4.136 -15.31,-6.203 -24.37,-6.211 -11.56,0 -21.13,3.286 -28.71,9.848 -7.5,6.633 -11.25,16.008 -11.25,28.125 0,15.699 6.05,27.066 18.16,34.102 6.64,3.82 16.41,6.554 29.3,8.203 l 11.37,1.406 v 0" /><path
         id="path90"
         style="fill:#231f20;fill-opacity:1;fill-rule:nonzero;stroke:none"
         d="m 2857.11,340.773 4.22,-0.234 c 3.28,-0.156 6.41,-0.039 9.38,0.352 2.97,0.386 5.47,1.289 7.5,2.695 1.95,1.328 3.75,4.102 5.39,8.316 1.72,4.223 2.42,6.797 2.11,7.739 L 2838.83,493 h 37.15 l 27.89,-94.223 26.37,94.223 h 35.51 l -43.83,-125.625 c -8.44,-24.223 -15.12,-39.223 -20.04,-45 -4.92,-5.859 -14.77,-8.789 -29.53,-8.789 -2.97,0 -5.35,0.039 -7.15,0.113 -1.8,0 -4.49,0.117 -8.09,0.356 v 26.718 0" /><path
         id="path92"
         style="fill:#231f20;fill-opacity:1;fill-rule:nonzero;stroke:none"
         d="M 322.676,645.359 C 144.469,645.359 0,500.895 0,322.691 0,144.473 144.469,0 322.676,0 c 178.207,0 322.676,144.473 322.676,322.691 0,178.204 -144.469,322.668 -322.676,322.668 z m 0.019,-618.484 c -163.371,0 -295.8044,132.441 -295.8044,295.797 0,163.375 132.4334,295.805 295.8044,295.805 163.36,0 295.789,-132.43 295.789,-295.805 0,-163.356 -132.429,-295.797 -295.789,-295.797" /><path
         id="path94"
         style="fill:#231f20;fill-opacity:1;fill-rule:nonzero;stroke:none"
         d="M 117.09,472.75 H 533.988 V 376.879 H 375 V 115.078 H 267.48 V 376.879 H 117.09 v 95.871 0" /></g></g></svg>
